<svg width="22" height="22" viewBox="0 0 22 22" fill="none" xmlns="http://www.w3.org/2000/svg">
<path d="M20.68 11.2291C20.68 10.5141 20.6158 9.82663 20.4967 9.16663H11V13.0716H16.4267C16.1883 14.3275 15.4733 15.3908 14.4008 16.1058V18.645H17.6733C19.58 16.885 20.68 14.3 20.68 11.2291Z" fill="#4285F4"/>
<path d="M11 21.0834C13.7225 21.0834 16.005 20.185 17.6733 18.645L14.4008 16.1059C13.5025 16.7109 12.3566 17.0775 11 17.0775C8.37829 17.0775 6.15079 15.3084 5.35329 12.925H1.99829V15.5284C3.65746 18.8192 7.05829 21.0834 11 21.0834Z" fill="#34A853"/>
<path d="M5.35342 12.9158C5.15175 12.3108 5.03258 11.6692 5.03258 11C5.03258 10.3308 5.15175 9.68917 5.35342 9.08417V6.48083H1.99841C1.31091 7.8375 0.916748 9.36834 0.916748 11C0.916748 12.6317 1.31091 14.1625 1.99841 15.5192L4.61091 13.4842L5.35342 12.9158Z" fill="#FBBC05"/>
<path d="M11 4.93163C12.485 4.93163 13.805 5.44496 14.8591 6.43496L17.7466 3.54746C15.9958 1.91579 13.7225 0.916626 11 0.916626C7.05829 0.916626 3.65746 3.18079 1.99829 6.48079L5.35329 9.08413C6.15079 6.70079 8.37829 4.93163 11 4.93163Z" fill="#EA4335"/>
</svg>
